<?xml version="1.0" standalone="no"?>
<!DOCTYPE svg PUBLIC "-//W3C//DTD SVG 20010904//EN"
 "http://www.w3.org/TR/2001/REC-SVG-20010904/DTD/svg10.dtd">
<svg version="1.0" xmlns="http://www.w3.org/2000/svg"
 width="928.000000pt" height="1280.000000pt" viewBox="0 0 928.000000 1280.000000"
 preserveAspectRatio="xMidYMid meet">
<g transform="translate(0.000000,1280.000000) scale(0.100000,-0.100000)"
fill="#000000" stroke="none">
<path d="M4525 12771 c-182 -84 -229 -286 -100 -429 l45 -50 0 -189 0 -190
-77 -38 c-159 -78 -271 -235 -292 -409 l-6 -51 -647 -3 -648 -2 0 -333 c0
-182 -4 -337 -8 -344 -5 -9 -53 -13 -157 -15 l-150 -3 0 -525 0 -525 153 -3
c83 -1 153 -4 154 -5 1 -1 5 -155 8 -342 l5 -340 643 -3 c353 -1 642 -6 642
-11 0 -4 -10 -16 -21 -27 -47 -41 -63 -128 -34 -183 8 -16 28 -40 45 -54 37
-31 37 -42 4 -63 -44 -29 -67 -89 -60 -156 l6 -58 -1043 -2 -1042 -3 -3 -467
c-1 -316 -6 -468 -13 -468 -5 0 -24 7 -41 16 -36 18 -107 21 -138 4 -41 -22
-49 -8 -52 97 l-3 98 -680 3 c-374 1 -690 0 -703 -3 l-22 -5 0 -705 0 -705
177 -2 178 -3 3 -781 2 -780 -93 -47 c-262 -133 -458 -382 -520 -662 -45 -207
-46 -231 -13 -395 27 -131 69 -246 123 -339 46 -77 139 -191 156 -191 7 0 102
90 212 200 l199 199 -22 28 c-12 16 -35 53 -52 84 -109 208 -21 459 198 562
62 30 74 32 172 31 86 0 114 -4 154 -22 254 -115 335 -421 170 -638 l-32 -41
204 -204 204 -203 35 34 c90 88 189 270 231 425 15 57 19 104 18 250 0 167 -2
187 -28 269 -85 278 -261 486 -526 623 l-75 38 0 780 0 780 168 3 167 2 0 93
c0 114 4 122 53 102 49 -20 85 -19 132 5 22 11 43 20 47 20 4 0 8 -306 8 -681
0 -662 1 -681 19 -697 13 -11 87 -203 200 -517 238 -664 797 -2215 806 -2238
7 -16 29 -17 275 -17 235 0 269 -2 274 -16 3 -9 6 -328 6 -709 0 -646 -1 -694
-17 -713 -10 -11 -83 -59 -163 -107 -80 -48 -150 -92 -156 -98 -9 -9 21 -97
125 -359 l136 -348 436 0 c340 0 438 3 442 13 55 136 267 680 267 686 0 5 -77
54 -170 110 l-170 102 2 717 3 717 385 0 385 0 3 -717 2 -717 -170 -102 c-93
-56 -170 -105 -170 -110 0 -6 212 -550 267 -686 4 -10 102 -13 442 -13 l436 0
136 348 c104 262 134 350 125 359 -6 6 -76 50 -156 98 -80 48 -153 96 -162
107 -17 19 -18 67 -18 713 0 381 3 700 6 709 5 14 38 16 264 16 l258 0 10 28
c5 15 161 448 347 962 185 514 404 1122 486 1350 82 228 159 424 169 435 19
21 20 39 20 708 0 495 3 687 11 687 6 0 24 -11 40 -25 41 -34 93 -42 149 -22
34 12 46 13 52 4 4 -7 8 -54 8 -104 l0 -93 168 -2 167 -3 0 -780 0 -780 -85
-44 c-255 -130 -432 -343 -517 -618 -25 -81 -27 -102 -27 -268 -1 -200 8 -251
71 -402 44 -104 181 -303 210 -303 4 0 99 91 209 201 l202 202 -32 41 c-137
180 -102 452 74 581 90 66 133 80 250 80 98 0 110 -2 172 -32 173 -82 272
-264 239 -441 -12 -65 -52 -154 -93 -205 l-22 -28 199 -199 c110 -110 205
-200 212 -200 38 0 184 222 231 354 34 93 72 276 72 346 0 70 -48 287 -83 370
-93 226 -260 409 -474 517 l-93 47 2 780 3 781 178 3 177 2 0 705 0 705 -22 5
c-13 3 -329 4 -703 3 l-680 -3 -3 -98 c-3 -105 -11 -119 -52 -97 -49 26 -145
8 -179 -34 -8 -9 -17 -16 -22 -16 -5 0 -10 217 -11 483 l-3 482 -1032 3 -1033
2 6 58 c7 67 -16 127 -60 156 -33 21 -33 32 4 63 17 14 37 38 45 54 29 55 13
142 -34 183 -11 11 -21 23 -21 27 0 5 291 10 648 11 l647 3 5 340 5 340 150 5
150 5 0 525 0 525 -145 3 c-100 2 -147 6 -152 15 -4 7 -8 162 -8 345 l0 332
-670 0 -669 0 -6 38 c-22 140 -61 226 -146 317 -47 50 -81 75 -145 107 l-84
41 0 187 0 187 35 36 c146 151 94 384 -101 455 -78 28 -106 27 -179 -7z"/>
</g>
</svg>
